<?xml version="1.0" encoding="UTF-8"?>
<svg xmlns="http://www.w3.org/2000/svg" viewBox="0 0 1223 1223" width="1223" height="1223">
<g transform="translate(611.5,611.5) rotate(45) translate(-2090.0,-236.0)">
<g transform="translate(0.000000,484.000000) scale(0.100000,-0.100000)" fill="#1F2AFF" stroke="none">
<path d="M2050 4589 c-416 -47 -837 -221 -1174 -487 -91 -71 -297 -277 -368
-368 -82 -104 -187 -266 -245 -379 -49 -96 -133 -295 -133 -315 0 -7 428 -10
1215 -10 861 0 1229 -3 1267 -11 108 -23 192 -81 230 -157 19 -40 23 -63 23
-152 0 -97 -2 -109 -28 -152 -40 -68 -106 -114 -212 -146 -42 -13 -153 -16
-697 -19 l-648 -4 0 -620 0 -619 260 0 260 0 0 425 0 425 294 0 293 0 254
-425 253 -425 282 0 282 0 -289 475 c-159 261 -289 478 -289 483 0 5 26 16 58
26 165 52 318 170 382 296 46 91 62 170 62 315 1 236 -42 357 -171 485 -126
125 -298 194 -545 219 -70 7 -409 11 -938 11 -455 0 -828 3 -828 7 0 3 26 34
57 67 257 273 559 454 901 540 497 127 1031 35 1457 -248 240 -160 430 -361
571 -603 l51 -88 257 -3 257 -2 -6 22 c-16 57 -151 313 -214 408 -380 573
-961 936 -1644 1025 -127 16 -408 18 -537 4z M21390 3680 c-2879 -202 -5253
-371 -5275 -375 -143 -27 -276 -143 -330 -288 -16 -44 -41 -68 -238 -235 -121
-103 -257 -218 -302 -257 -45 -38 -99 -85 -121 -103 -21 -19 -146 -124 -276
-235 l-238 -201 68 -44 c37 -23 96 -61 132 -84 36 -22 88 -55 115 -73 28 -18
138 -87 245 -155 107 -67 258 -163 335 -211 77 -49 196 -124 265 -167 110 -70
128 -85 150 -128 34 -66 112 -142 187 -182 126 -67 -355 -94 5463 312 4754
332 5251 368 5310 388 174 57 286 187 310 358 16 111 -92 1635 -122 1733 -52
168 -210 293 -393 310 -27 3 -2406 -160 -5285 -363z m4007 -366 c-3 -3 -12 -4
-19 -1 -8 3 -5 6 6 6 11 1 17 -2 13 -5z m106 -1 c-13 -2 -33 -2 -45 0 -13 2
-3 4 22 4 25 0 35 -2 23 -4z m-166 -9 c-3 -3 -12 -4 -19 -1 -8 3 -5 6 6 6 11
1 17 -2 13 -5z m-107 -34 c-8 -5 -19 -10 -25 -10 -5 0 -3 5 5 10 8 5 20 10 25
10 6 0 3 -5 -5 -10z m-552 -27 c-10 -2 -26 -2 -35 0 -10 3 -2 5 17 5 19 0 27
-2 18 -5z m-150 -10 c-10 -2 -26 -2 -35 0 -10 3 -2 5 17 5 19 0 27 -2 18 -5z
m632 4 c0 -2 -17 -19 -37 -38 l-38 -34 34 38 c33 34 41 42 41 34z m571 -24
c13 -16 12 -17 -3 -4 -10 7 -18 15 -18 17 0 8 8 3 21 -13z m-1264 -25 c-3 -7
-5 -2 -5 12 0 14 2 19 5 13 2 -7 2 -19 0 -25z m-514 5 c-7 -2 -21 -2 -30 0
-10 3 -4 5 12 5 17 0 24 -2 18 -5z m744 -45 c-2 -13 -4 -5 -4 17 -1 22 1 32 4
23 2 -10 2 -28 0 -40z m-884 35 c-7 -2 -21 -2 -30 0 -10 3 -4 5 12 5 17 0 24
-2 18 -5z m-76 -25 c-3 -8 -6 -5 -6 6 -1 11 2 17 5 13 3 -3 4 -12 1 -19z
m-341 -33 c1 -27 0 -27 -3 -3 -3 18 -11 28 -26 31 -18 3 -18 4 3 3 21 -1 25
-6 26 -31z m-153 18 c-7 -2 -21 -2 -30 0 -10 3 -4 5 12 5 17 0 24 -2 18 -5z
m2140 -20 c-7 -2 -19 -2 -25 0 -7 3 -2 5 12 5 14 0 19 -2 13 -5z m157 -38 c13
-14 21 -25 18 -25 -2 0 -15 11 -28 25 -13 14 -21 25 -18 25 2 0 15 -11 28 -25z
m-3036 -3 c2 -4 -13 -6 -35 -4 -21 2 -39 6 -39 8 0 7 69 4 74 -4z m1973 -39
c-3 -10 -5 -2 -5 17 0 19 2 27 5 18 2 -10 2 -26 0 -35z m-2124 30 c-13 -2 -33
-2 -45 0 -13 2 -3 4 22 4 25 0 35 -2 23 -4z m1394 -50 c-3 -10 -5 -4 -5 12 0
17 2 24 5 18 2 -7 2 -21 0 -30z m960 -15 c-2 -13 -4 -5 -4 17 -1 22 1 32 4 23
2 -10 2 -28 0 -40z m-1530 -5 c-3 -10 -5 -4 -5 12 0 17 2 24 5 18 2 -7 2 -21
0 -30z m1860 -40 c-2 -16 -4 -5 -4 22 0 28 2 40 4 28 2 -13 2 -35 0 -50z m770
61 c-3 -3 -12 -4 -19 -1 -8 3 -5 6 6 6 11 1 17 -2 13 -5z m-1696 -21 c13 -16
12 -17 -3 -4 -10 7 -18 15 -18 17 0 8 8 3 21 -13z m1582 10 c-13 -2 -33 -2
-45 0 -13 2 -3 4 22 4 25 0 35 -2 23 -4z m-4536 -10 c-20 -2 -52 -2 -70 0 -17
2 0 4 38 4 39 0 53 -2 32 -4z m2250 -45 c-2 -13 -4 -5 -4 17 -1 22 1 32 4 23
2 -10 2 -28 0 -40z m-2380 36 c-3 -3 -12 -4 -19 -1 -8 3 -5 6 6 6 11 1 17 -2
13 -5z m220 0 c-3 -3 -12 -4 -19 -1 -8 3 -5 6 6 6 11 1 17 -2 13 -5z m3240
-91 c-3 -10 -5 -2 -5 17 0 19 2 27 5 18 2 -10 2 -26 0 -35z m-730 -30 c-3 -10
-5 -2 -5 17 0 19 2 27 5 18 2 -10 2 -26 0 -35z m1290 25 c-3 -8 -6 -5 -6 6 -1
11 2 17 5 13 3 -3 4 -12 1 -19z m-330 -35 c-3 -10 -5 -2 -5 17 0 19 2 27 5 18
2 -10 2 -26 0 -35z m-4909 30 c-10 -2 -26 -2 -35 0 -10 3 -2 5 17 5 19 0 27
-2 18 -5z m140 0 c-10 -2 -28 -2 -40 0 -13 2 -5 4 17 4 22 1 32 -1 23 -4z
m3239 -40 c-3 -10 -5 -2 -5 17 0 19 2 27 5 18 2 -10 2 -26 0 -35z m-3519 30
c-10 -2 -26 -2 -35 0 -10 3 -2 5 17 5 19 0 27 -2 18 -5z m1092 4 c0 -2 -10
-12 -22 -23 l-23 -19 19 23 c18 21 26 27 26 19z m-1237 -14 c-7 -2 -21 -2 -30
0 -10 3 -4 5 12 5 17 0 24 -2 18 -5z m3894 -55 c-2 -13 -4 -5 -4 17 -1 22 1
32 4 23 2 -10 2 -28 0 -40z m-2707 19 c0 -2 -10 -12 -22 -23 l-23 -19 19 23
c18 21 26 27 26 19z m-1956 -16 c4 -5 -3 -7 -14 -4 -23 6 -26 13 -6 13 8 0 17
-4 20 -9z m-121 -8 c-13 -2 -33 -2 -45 0 -13 2 -3 4 22 4 25 0 35 -2 23 -4z
m1542 -23 c10 -11 16 -20 13 -20 -3 0 -13 9 -23 20 -10 11 -16 20 -13 20 3 0
13 -9 23 -20z m918 3 c-7 -2 -21 -2 -30 0 -10 3 -4 5 12 5 17 0 24 -2 18 -5z
m3404 -30 c-3 -10 -5 -4 -5 12 0 17 2 24 5 18 2 -7 2 -21 0 -30z m624 10 c13
-16 12 -17 -3 -4 -10 7 -18 15 -18 17 0 8 8 3 21 -13z m-1354 -40 c-3 -10 -5
-2 -5 17 0 19 2 27 5 18 2 -10 2 -26 0 -35z m-4340 -10 c-3 -10 -5 -2 -5 17 0
19 2 27 5 18 2 -10 2 -26 0 -35z m1542 43 c-2 -2 -15 -9 -29 -15 -24 -11 -24
-11 -6 3 16 13 49 24 35 12z m3758 -48 c-2 -13 -4 -5 -4 17 -1 22 1 32 4 23 2
-10 2 -28 0 -40z m-1530 -5 c-3 -10 -5 -2 -5 17 0 19 2 27 5 18 2 -10 2 -26 0
-35z m800 -15 c-2 -13 -4 -5 -4 17 -1 22 1 32 4 23 2 -10 2 -28 0 -40z m-6619
35 c-10 -2 -26 -2 -35 0 -10 3 -2 5 17 5 19 0 27 -2 18 -5z m239 1 c-3 -3 -12
-4 -19 -1 -8 3 -5 6 6 6 11 1 17 -2 13 -5z m-379 -11 c-10 -2 -26 -2 -35 0
-10 3 -2 5 17 5 19 0 27 -2 18 -5z m1572 -28 c0 -5 -5 -3 -10 5 -5 8 -10 20
-10 25 0 6 5 3 10 -5 5 -8 10 -19 10 -25z m4617 -17 c-2 -13 -4 -5 -4 17 -1
22 1 32 4 23 2 -10 2 -28 0 -40z m2364 35 c13 -16 12 -17 -3 -4 -10 7 -18 15
-18 17 0 8 8 3 21 -13z m-8698 0 c-7 -2 -21 -2 -30 0 -10 3 -4 5 12 5 17 0 24
-2 18 -5z m3797 4 c0 -2 -10 -12 -22 -23 l-23 -19 19 23 c18 21 26 27 26 19z
m1467 -19 c-3 -8 -6 -5 -6 6 -1 11 2 17 5 13 3 -3 4 -12 1 -19z m91 -3 c-3 -3
-9 2 -12 12 -6 14 -5 15 5 6 7 -7 10 -15 7 -18z m232 -10 c0 -5 -5 -3 -10 5
-5 8 -10 20 -10 25 0 6 5 3 10 -5 5 -8 10 -19 10 -25z m-2882 18 c-10 -2 -26
-2 -35 0 -10 3 -2 5 17 5 19 0 27 -2 18 -5z m167 -13 c3 -6 -1 -7 -9 -4 -18 7
-21 14 -7 14 6 0 13 -4 16 -10z m1425 -13 l25 -4 -26 -2 c-15 0 -33 7 -40 17
-12 15 -12 16 1 5 8 -6 26 -13 40 -16z m747 1 c-3 -8 -6 -5 -6 6 -1 11 2 17 5
13 3 -3 4 -12 1 -19z m-5120 -35 c-3 -10 -5 -2 -5 17 0 19 2 27 5 18 2 -10 2
-26 0 -35z m4521 40 c-10 -2 -28 -2 -40 0 -13 2 -5 4 17 4 22 1 32 -1 23 -4z
m-3762 -35 l29 -33 -32 29 c-31 28 -38 36 -30 36 2 0 16 -15 33 -32z m7611 16
c-3 -3 -12 -4 -19 -1 -8 3 -5 6 6 6 11 1 17 -2 13 -5z m-5140 -26 c-3 -8 -6
-5 -6 6 -1 11 2 17 5 13 3 -3 4 -12 1 -19z m4260 -25 c-3 -10 -5 -2 -5 17 0
19 2 27 5 18 2 -10 2 -26 0 -35z m920 41 c-3 -3 -12 -4 -19 -1 -8 3 -5 6 6 6
11 1 17 -2 13 -5z m-5398 -54 c0 -10 -3 -8 -9 5 -12 27 -12 43 0 25 5 -8 9
-22 9 -30z m3748 -7 c-3 -10 -5 -2 -5 17 0 19 2 27 5 18 2 -10 2 -26 0 -35z
m-4340 -10 c-3 -10 -5 -2 -5 17 0 19 2 27 5 18 2 -10 2 -26 0 -35z m4734 30
c13 -16 12 -17 -3 -4 -10 7 -18 15 -18 17 0 8 8 3 21 -13z m566 -35 c-2 -13
-4 -5 -4 17 -1 22 1 32 4 23 2 -10 2 -28 0 -40z m-1530 -5 c-3 -10 -5 -2 -5
17 0 19 2 27 5 18 2 -10 2 -26 0 -35z m-2950 -40 c-2 -16 -4 -3 -4 27 0 30 2
43 4 28 2 -16 2 -40 0 -55z m4164 60 c13 -16 12 -17 -3 -4 -10 7 -18 15 -18
17 0 8 8 3 21 -13z m-4754 -45 c-2 -13 -4 -5 -4 17 -1 22 1 32 4 23 2 -10 2
-28 0 -40z m4340 5 c-3 -10 -5 -2 -5 17 0 19 2 27 5 18 2 -10 2 -26 0 -35z
m1850 15 c-3 -8 -6 -5 -6 6 -1 11 2 17 5 13 3 -3 4 -12 1 -19z m-2420 -35 c-3
-10 -5 -2 -5 17 0 19 2 27 5 18 2 -10 2 -26 0 -35z m-5934 30 c-7 -2 -19 -2
-25 0 -7 3 -2 5 12 5 14 0 19 -2 13 -5z m1371 -9 c3 -8 2 -12 -4 -9 -6 3 -10
10 -10 16 0 14 7 11 14 -7z m-1506 -1 c-10 -2 -26 -2 -35 0 -10 3 -2 5 17 5
19 0 27 -2 18 -5z m-341 -50 c-3 -10 -5 -4 -5 12 0 17 2 24 5 18 2 -7 2 -21 0
-30z m564 20 c13 -16 12 -17 -3 -4 -10 7 -18 15 -18 17 0 8 8 3 21 -13z m4067
-19 c-3 -14 -5 -12 -10 9 -3 19 -2 25 4 19 6 -6 8 -18 6 -28z m3979 4 c-3 -7
-5 -2 -5 12 0 14 2 19 5 13 2 -7 2 -19 0 -25z m-5080 -30 c-2 -13 -4 -5 -4 17
-1 22 1 32 4 23 2 -10 2 -28 0 -40z m986 45 c-7 -2 -21 -2 -30 0 -10 3 -4 5
12 5 17 0 24 -2 18 -5z m-145 -10 c-10 -2 -26 -2 -35 0 -10 3 -2 5 17 5 19 0
27 -2 18 -5z m3122 -18 c0 -14 -4 -25 -9 -25 -4 0 -6 11 -3 25 2 14 6 25 8 25
2 0 4 -11 4 -25z m-7263 -37 c-2 -13 -4 -5 -4 17 -1 22 1 32 4 23 2 -10 2 -28
0 -40z m4001 45 c-10 -2 -26 -2 -35 0 -10 3 -2 5 17 5 19 0 27 -2 18 -5z
m-481 -35 c-3 -7 -5 -2 -5 12 0 14 2 19 5 13 2 -7 2 -19 0 -25z m343 28 c0 -2
-15 -6 -34 -8 -19 -2 -32 0 -30 4 5 8 64 12 64 4z m-873 -28 c-3 -8 -6 -5 -6
6 -1 11 2 17 5 13 3 -3 4 -12 1 -19z m3540 -15 c-3 -10 -5 -4 -5 12 0 17 2 24
5 18 2 -7 2 -21 0 -30z m960 -15 c-2 -13 -4 -5 -4 17 -1 22 1 32 4 23 2 -10 2
-28 0 -40z m526 45 c-7 -2 -21 -2 -30 0 -10 3 -4 5 12 5 17 0 24 -2 18 -5z
m-5826 -40 c-3 -10 -5 -4 -5 12 0 17 2 24 5 18 2 -7 2 -21 0 -30z m564 14
c-10 -9 -11 -8 -5 6 3 10 9 15 12 12 3 -3 0 -11 -7 -18z m5122 16 c-7 -2 -21
-2 -30 0 -10 3 -4 5 12 5 17 0 24 -2 18 -5z m-1916 -40 c-3 -10 -5 -4 -5 12 0
17 2 24 5 18 2 -7 2 -21 0 -30z m1074 20 c13 -16 12 -17 -3 -4 -10 7 -18 15
-18 17 0 8 8 3 21 -13z m-274 -45 c-2 -13 -4 -5 -4 17 -1 22 1 32 4 23 2 -10
2 -28 0 -40z m-4324 -31 c8 -6 7 -7 -3 -4 -10 2 -15 17 -16 43 -1 37 -1 38 3
4 3 -19 10 -39 16 -43z m3107 38 c0 -5 -5 -3 -10 5 -5 8 -10 20 -10 25 0 6 5
3 10 -5 5 -8 10 -19 10 -25z m-5173 -22 c-3 -10 -5 -2 -5 17 0 19 2 27 5 18 2
-10 2 -26 0 -35z m220 10 c-3 -10 -5 -4 -5 12 0 17 2 24 5 18 2 -7 2 -21 0
-30z m540 15 c-3 -8 -6 -5 -6 6 -1 11 2 17 5 13 3 -3 4 -12 1 -19z m323 -13
c0 -5 -5 -3 -10 5 -5 8 -10 20 -10 25 0 6 5 3 10 -5 5 -8 10 -19 10 -25z
m4737 -17 c-2 -13 -4 -5 -4 17 -1 22 1 32 4 23 2 -10 2 -28 0 -40z m1893 7
c13 -14 21 -25 18 -25 -2 0 -15 11 -28 25 -13 14 -21 25 -18 25 2 0 15 -11 28
-25z m-8303 -42 c-3 -10 -5 -2 -5 17 0 19 2 27 5 18 2 -10 2 -26 0 -35z m2890
41 c-3 -3 -12 -4 -19 -1 -8 3 -5 6 6 6 11 1 17 -2 13 -5z m1140 -41 c-3 -10
-5 -2 -5 17 0 19 2 27 5 18 2 -10 2 -26 0 -35z m600 -5 c-2 -13 -4 -5 -4 17
-1 22 1 32 4 23 2 -10 2 -28 0 -40z m917 36 c3 -8 2 -12 -4 -9 -6 3 -10 10
-10 16 0 14 7 11 14 -7z m-2756 -1 c-10 -2 -26 -2 -35 0 -10 3 -2 5 17 5 19 0
27 -2 18 -5z m729 -25 c-3 -7 -5 -2 -5 12 0 14 2 19 5 13 2 -7 2 -19 0 -25z
m5008 12 c-3 -5 -12 -10 -18 -10 -7 0 -6 4 3 10 19 12 23 12 15 0z m-8298 -52
c-2 -13 -4 -5 -4 17 -1 22 1 32 4 23 2 -10 2 -28 0 -40z m3520 20 c-3 -7 -5
-2 -5 12 0 14 2 19 5 13 2 -7 2 -19 0 -25z m1766 25 c-7 -2 -21 -2 -30 0 -10
3 -4 5 12 5 17 0 24 -2 18 -5z m-2363 -6 c0 -2 -15 -16 -32 -33 l-33 -29 29
33 c28 30 36 37 36 29z m2218 -4 c-10 -2 -26 -2 -35 0 -10 3 -2 5 17 5 19 0
27 -2 18 -5z m3119 1 c-3 -3 -12 -4 -19 -1 -8 3 -5 6 6 6 11 1 17 -2 13 -5z
m-4139 -11 c-10 -2 -26 -2 -35 0 -10 3 -2 5 17 5 19 0 27 -2 18 -5z m2409 -40
c-3 -10 -5 -2 -5 17 0 19 2 27 5 18 2 -10 2 -26 0 -35z m-7575 6 c11 -6 40
-29 64 -51 154 -142 46 -409 -167 -411 -217 -2 -330 260 -178 412 39 39 79 60
132 70 45 8 114 -1 149 -20z m3235 -16 c-3 -10 -5 -2 -5 17 0 19 2 27 5 18 2
-10 2 -26 0 -35z m1791 40 c-10 -2 -26 -2 -35 0 -10 3 -2 5 17 5 19 0 27 -2
18 -5z m199 -15 c-3 -8 -6 -5 -6 6 -1 11 2 17 5 13 3 -3 4 -12 1 -19z m3310
-25 c-3 -10 -5 -2 -5 17 0 19 2 27 5 18 2 -10 2 -26 0 -35z m-4190 15 c-3 -8
-6 -5 -6 6 -1 11 2 17 5 13 3 -3 4 -12 1 -19z m536 15 c-7 -2 -19 -2 -25 0 -7
3 -2 5 12 5 14 0 19 -2 13 -5z m2124 -40 c-3 -10 -5 -2 -5 17 0 19 2 27 5 18
2 -10 2 -26 0 -35z m-4237 2 c0 -5 -5 -3 -10 5 -5 8 -10 20 -10 25 0 6 5 3 10
-5 5 -8 10 -19 10 -25z m5037 -17 c-2 -13 -4 -5 -4 17 -1 22 1 32 4 23 2 -10
2 -28 0 -40z m-5257 -3 c0 -5 -5 -3 -10 5 -5 8 -10 20 -10 25 0 6 5 3 10 -5 5
-8 10 -19 10 -25z m4687 -17 c-2 -13 -4 -5 -4 17 -1 22 1 32 4 23 2 -10 2 -28
0 -40z m-5944 25 c-7 -2 -19 -2 -25 0 -7 3 -2 5 12 5 14 0 19 -2 13 -5z m8247
3 c0 -2 -8 -10 -17 -17 -16 -13 -17 -12 -4 4 13 16 21 21 21 13z m-8362 -13
c-10 -2 -26 -2 -35 0 -10 3 -2 5 17 5 19 0 27 -2 18 -5z m-351 -50 c-3 -10 -5
-2 -5 17 0 19 2 27 5 18 2 -10 2 -26 0 -35z m8198 -1 c-3 -3 -11 0 -18 7 -9
10 -8 11 6 5 10 -3 15 -9 12 -12z m-7545 -2 c0 -5 -5 -10 -11 -10 -5 0 -7 5
-4 10 3 6 8 10 11 10 2 0 4 -4 4 -10z m2104 1 c4 -5 -3 -7 -14 -4 -23 6 -26
13 -6 13 8 0 17 -4 20 -9z m4677 -8 c13 -16 12 -17 -3 -4 -17 13 -22 21 -14
21 2 0 10 -8 17 -17z m-674 -40 c-3 -10 -5 -2 -5 17 0 19 2 27 5 18 2 -10 2
-26 0 -35z m-4340 -10 c-3 -10 -5 -2 -5 17 0 19 2 27 5 18 2 -10 2 -26 0 -35z
m5300 -5 c-2 -13 -4 -5 -4 17 -1 22 1 32 4 23 2 -10 2 -28 0 -40z m-3887 17
c13 -14 21 -25 18 -25 -2 0 -15 11 -28 25 -13 14 -21 25 -18 25 2 0 15 -11 28
-25z m1658 18 c-10 -2 -26 -2 -35 0 -10 3 -2 5 17 5 19 0 27 -2 18 -5z m699
-40 c-3 -10 -5 -2 -5 17 0 19 2 27 5 18 2 -10 2 -26 0 -35z m2340 41 c-3 -3
-12 -4 -19 -1 -8 3 -5 6 6 6 11 1 17 -2 13 -5z m-3179 -11 c-10 -2 -26 -2 -35
0 -10 3 -2 5 17 5 19 0 27 -2 18 -5z m3020 0 c-10 -2 -26 -2 -35 0 -10 3 -2 5
17 5 19 0 27 -2 18 -5z m109 1 c-3 -3 -12 -4 -19 -1 -8 3 -5 6 6 6 11 1 17 -2
13 -5z m-5830 -56 c-2 -13 -4 -5 -4 17 -1 22 1 32 4 23 2 -10 2 -28 0 -40z
m2561 45 c-10 -2 -26 -2 -35 0 -10 3 -2 5 17 5 19 0 27 -2 18 -5z m1779 -40
c-3 -10 -5 -2 -5 17 0 19 2 27 5 18 2 -10 2 -26 0 -35z m-6165 -38 c6 -11 7
-15 2 -10 -5 6 -25 28 -44 50 l-35 40 33 -30 c19 -17 38 -39 44 -50z m958 40
c0 -5 -5 -3 -10 5 -5 8 -10 20 -10 25 0 6 5 3 10 -5 5 -8 10 -19 10 -25z
m4637 -22 c-3 -10 -5 -2 -5 17 0 19 2 27 5 18 2 -10 2 -26 0 -35z m-4950 5
c-3 -8 -6 -5 -6 6 -1 11 2 17 5 13 3 -3 4 -12 1 -19z m6038 4 c-3 -3 -11 0
-18 7 -9 10 -8 11 6 5 10 -3 15 -9 12 -12z m138 11 c-7 -2 -21 -2 -30 0 -10 3
-4 5 12 5 17 0 24 -2 18 -5z m-7636 -50 c-3 -10 -5 -4 -5 12 0 17 2 24 5 18 2
-7 2 -21 0 -30z m486 30 c-13 -2 -33 -2 -45 0 -13 2 -3 4 22 4 25 0 35 -2 23
-4z m1280 0 c-7 -2 -19 -2 -25 0 -7 3 -2 5 12 5 14 0 19 -2 13 -5z m-1440 -10
c-7 -2 -21 -2 -30 0 -10 3 -4 5 12 5 17 0 24 -2 18 -5z m1310 0 c-7 -2 -21 -2
-30 0 -10 3 -4 5 12 5 17 0 24 -2 18 -5z m-1406 -65 c-2 -13 -4 -3 -4 22 0 25
2 35 4 23 2 -13 2 -33 0 -45z m1266 55 c-7 -2 -21 -2 -30 0 -10 3 -4 5 12 5
17 0 24 -2 18 -5z m2674 -9 c-3 -3 -12 -4 -19 -1 -8 3 -5 6 6 6 11 1 17 -2 13
-5z m333 3 c0 -2 -12 -14 -27 -28 l-28 -24 24 28 c23 25 31 32 31 24z m2418
-4 c-10 -2 -26 -2 -35 0 -10 3 -2 5 17 5 19 0 27 -2 18 -5z m-4068 -23 c6 -11
8 -20 6 -20 -3 0 -10 9 -16 20 -6 11 -8 20 -6 20 3 0 10 -9 16 -20z m1218 13
c-10 -2 -28 -2 -40 0 -13 2 -5 4 17 4 22 1 32 -1 23 -4z m2715 0 c-7 -2 -19
-2 -25 0 -7 3 -2 5 12 5 14 0 19 -2 13 -5z m-4366 -50 c-3 -10 -5 -4 -5 12 0
17 2 24 5 18 2 -7 2 -21 0 -30z m1243 12 c13 -14 21 -25 18 -25 -2 0 -15 11
-28 25 -13 14 -21 25 -18 25 2 0 15 -11 28 -25z m2260 -20 c0 -5 -5 -3 -10 5
-5 8 -10 20 -10 25 0 6 5 3 10 -5 5 -8 10 -19 10 -25z m428 28 c-10 -2 -26 -2
-35 0 -10 3 -2 5 17 5 19 0 27 -2 18 -5z m-3701 -60 c-3 -10 -5 -2 -5 17 0 19
2 27 5 18 2 -10 2 -26 0 -35z m3166 20 c-13 -2 -33 -2 -45 0 -13 2 -3 4 22 4
25 0 35 -2 23 -4z m-5186 -65 c-2 -13 -4 -3 -4 22 0 25 2 35 4 23 2 -13 2 -33
0 -45z m570 30 c-3 -8 -6 -5 -6 6 -1 11 2 17 5 13 3 -3 4 -12 1 -19z m-1190
-35 c-3 -10 -5 -2 -5 17 0 19 2 27 5 18 2 -10 2 -26 0 -35z m850 0 c-3 -10 -5
-2 -5 17 0 19 2 27 5 18 2 -10 2 -26 0 -35z m4236 26 c-6 -6 -21 -9 -34 -6
-22 4 -22 4 4 6 15 0 27 6 27 13 0 6 3 8 7 5 4 -4 2 -12 -4 -18z m-4856 -61
c-2 -13 -4 -5 -4 17 -1 22 1 32 4 23 2 -10 2 -28 0 -40z m4716 45 c-13 -2 -33
-2 -45 0 -13 2 -3 4 22 4 25 0 35 -2 23 -4z m-3190 -10 c-7 -2 -21 -2 -30 0
-10 3 -4 5 12 5 17 0 24 -2 18 -5z m-145 -10 c-10 -2 -26 -2 -35 0 -10 3 -2 5
17 5 19 0 27 -2 18 -5z m-140 -10 c-10 -2 -26 -2 -35 0 -10 3 -2 5 17 5 19 0
27 -2 18 -5z m949 -30 c-3 -10 -5 -4 -5 12 0 17 2 24 5 18 2 -7 2 -21 0 -30z
m-307 -18 c0 -5 -5 -3 -10 5 -5 8 -10 20 -10 25 0 6 5 3 10 -5 5 -8 10 -19 10
-25z m2087 29 c-3 -3 -12 -4 -19 -1 -8 3 -5 6 6 6 11 1 17 -2 13 -5z m-1550
-56 c-2 -13 -4 -5 -4 17 -1 22 1 32 4 23 2 -10 2 -28 0 -40z m1310 46 c-3 -3
-12 -4 -19 -1 -8 3 -5 6 6 6 11 1 17 -2 13 -5z m-3357 -8 c0 -2 -8 -10 -17
-17 -16 -13 -17 -12 -4 4 13 16 21 21 21 13z m547 -48 c-3 -8 -6 -5 -6 6 -1
11 2 17 5 13 3 -3 4 -12 1 -19z m-1140 -35 c-3 -10 -5 -2 -5 17 0 19 2 27 5
18 2 -10 2 -26 0 -35z m3243 37 c0 -5 -19 -9 -42 -9 l-43 2 40 7 c22 4 41 8
43 9 1 0 2 -3 2 -9z m-2767 -17 c-7 -2 -21 -2 -30 0 -10 3 -4 5 12 5 17 0 24
-2 18 -5z m2605 0 c-10 -2 -28 -2 -40 0 -13 2 -5 4 17 4 22 1 32 -1 23 -4z
m-2745 -10 c-7 -2 -21 -2 -30 0 -10 3 -4 5 12 5 17 0 24 -2 18 -5z m2300 -20
c-7 -2 -21 -2 -30 0 -10 3 -4 5 12 5 17 0 24 -2 18 -5z m-130 -10 c-13 -2 -33
-2 -45 0 -13 2 -3 4 22 4 25 0 35 -2 23 -4z m-1723 -6 c0 -2 -12 -14 -27 -28
l-28 -24 24 28 c23 25 31 32 31 24z m1293 -24 c-13 -2 -33 -2 -45 0 -13 2 -3
4 22 4 25 0 35 -2 23 -4z m-130 -10 c-7 -2 -19 -2 -25 0 -7 3 -2 5 12 5 14 0
19 -2 13 -5z m-618 -32 c-3 -6 -11 -11 -16 -11 -5 0 -4 6 3 14 14 16 24 13 13
-3z m-1318 -48 c-3 -10 -5 -4 -5 12 0 17 2 24 5 18 2 -7 2 -21 0 -30z m1216
30 c-13 -2 -33 -2 -45 0 -13 2 -3 4 22 4 25 0 35 -2 23 -4z m-626 -29 c-3 -3
-12 -4 -19 -1 -8 3 -5 6 6 6 11 1 17 -2 13 -5z m-50 -10 c-3 -3 -12 -4 -19 -1
-8 3 -5 6 6 6 11 1 17 -2 13 -5z m-84 -11 c-7 -2 -21 -2 -30 0 -10 3 -4 5 12
5 17 0 24 -2 18 -5z m-145 -10 c-10 -2 -26 -2 -35 0 -10 3 -2 5 17 5 19 0 27
-2 18 -5z m-140 -10 c-10 -2 -26 -2 -35 0 -10 3 -2 5 17 5 19 0 27 -2 18 -5z
m-141 -9 c-3 -3 -12 -4 -19 -1 -8 3 -5 6 6 6 11 1 17 -2 13 -5z M4020 2954 c0
-4 13 -48 30 -99 25 -81 70 -273 70 -304 0 -8 -63 -11 -205 -11 l-205 0 0
-235 0 -235 205 0 c123 0 205 -4 205 -9 0 -37 -47 -243 -74 -323 l-33 -98 248
0 248 0 15 53 c24 83 45 185 59 282 l13 90 187 3 187 2 0 235 0 235 -188 0
-188 0 -12 93 c-6 50 -24 144 -40 207 l-28 115 -247 3 c-136 1 -247 -1 -247
-4z M31 2638 c-19 -126 -26 -440 -11 -570 115 -1068 935 -1907 2000 -2047 222
-29 468 -22 698 19 609 110 1155 470 1504 990 59 89 228 409 228 433 0 4 -116
7 -257 7 l-258 -1 -48 -85 c-138 -242 -372 -482 -617 -635 -255 -158 -532
-246 -838 -268 -962 -68 -1811 628 -1937 1585 -25 188 -17 418 19 592 l13 62
-242 0 -242 0 -12 -82z"/>
</g>
<g transform="translate(0.000000,484.000000) scale(0.100000,-0.100000)" fill="#FFFFFF" stroke="none">
<path d="M25340 3305 c-88 -18 -154 -49 -207 -98 -73 -67 -88 -105 -88 -222 0
-91 2 -104 27 -146 54 -92 109 -122 323 -176 194 -49 245 -84 245 -168 0 -88
-70 -145 -178 -145 -91 0 -144 33 -162 100 l-10 36 -112 -9 c-62 -4 -114 -10
-116 -12 -10 -10 32 -119 61 -157 49 -64 158 -117 266 -129 198 -22 363 51
439 194 23 45 27 64 27 137 -1 182 -78 253 -347 320 -205 51 -248 80 -248 169
0 54 23 92 70 116 36 19 120 19 164 1 37 -16 76 -60 76 -87 0 -18 7 -19 88
-14 114 8 152 14 152 25 0 29 -47 128 -76 160 -41 45 -136 97 -190 104 -100
13 -144 13 -204 1z M24505 3233 l-40 -4 27 -377 c24 -341 26 -395 15 -381 -13
15 -403 533 -466 617 l-76 104 -109 -6 c-60 -3 -111 -8 -114 -10 -2 -3 13
-253 34 -557 l39 -551 110 7 c60 4 110 8 111 8 1 1 -11 171 -26 377 -14 206
-25 377 -23 380 5 6 18 -10 432 -559 l124 -163 106 7 c58 4 108 9 111 11 2 3
-13 249 -33 547 -21 298 -38 545 -37 550 0 7 -107 7 -185 0z M23213 3143 c-32
-3 -43 -8 -43 -21 0 -9 16 -237 35 -507 19 -269 35 -512 35 -539 l0 -49 113 8
c61 4 113 8 114 8 1 1 -16 250 -38 552 -21 303 -39 551 -39 553 0 3 -124 -1
-177 -5z M22309 3073 l-65 -4 -43 -157 c-24 -86 -72 -256 -106 -377 -133 -468
-165 -583 -165 -592 0 -9 57 -8 167 3 l53 5 20 72 c11 40 25 88 30 108 l10 36
202 12 c112 6 213 14 225 16 18 4 26 -6 57 -83 55 -133 30 -119 204 -112 86 3
86 -15 -1 180 -32 74 -75 171 -94 215 -19 44 -59 134 -89 200 -29 66 -89 201
-132 300 l-78 180 -65 1 c-35 0 -94 -1 -130 -3z m97 -275 c3 -13 15 -41 25
-63 27 -59 156 -365 155 -366 -3 -3 -322 -25 -325 -23 -3 3 55 229 111 432 14
47 23 53 34 20z M20995 2990 c-304 -65 -485 -342 -431 -657 39 -222 190 -389
400 -443 293 -75 584 78 676 353 19 58 22 85 18 172 -2 57 -6 107 -10 110 -7
7 -578 -31 -586 -39 -2 -3 -1 -40 3 -82 l7 -77 106 7 c59 4 144 9 190 13 95 7
95 8 61 -83 -42 -112 -131 -180 -256 -195 -224 -28 -381 111 -396 350 -11 174
78 317 225 362 122 38 234 18 317 -57 l51 -46 120 7 c66 4 120 9 120 12 0 11
-37 73 -71 119 -43 59 -133 123 -217 155 -63 24 -253 35 -327 19z M19625 2883
c-110 -8 -201 -16 -203 -18 -6 -5 71 -1090 77 -1096 6 -6 210 6 215 13 2 1 -3
97 -11 211 -8 115 -13 210 -12 211 2 2 27 6 55 9 l51 6 60 -92 c33 -51 95
-145 137 -209 l76 -118 42 5 c24 3 78 7 121 11 42 3 77 7 77 9 0 1 -63 94
-140 206 -76 112 -139 207 -140 211 0 3 24 20 53 36 120 68 174 170 164 312
-11 171 -124 279 -311 301 -82 9 -57 10 -311 -8z m367 -221 l40 -43 -4 -74
c-3 -65 -7 -78 -32 -104 -16 -16 -40 -34 -55 -40 -25 -10 -249 -31 -262 -25
-5 3 -18 173 -24 309 0 14 83 23 198 21 l98 -1 41 -43z M18595 2813 c-97 -5
-103 -8 -115 -56 -16 -60 -86 -310 -110 -392 -11 -38 -39 -135 -61 -215 -22
-80 -61 -218 -86 -307 -26 -90 -45 -165 -42 -167 10 -10 201 8 214 20 7 7 23
54 35 104 18 72 27 93 44 99 33 13 426 35 435 25 5 -5 25 -51 46 -102 l38 -93
111 7 c61 3 113 8 114 9 2 2 -12 39 -31 82 -19 43 -51 116 -72 163 -20 47 -63
144 -95 215 -32 72 -73 164 -90 205 -18 41 -43 98 -55 125 -52 115 -94 212
-109 248 -17 41 -4 39 -171 30z m143 -472 c50 -119 92 -222 92 -228 0 -6 -47
-13 -117 -17 -65 -4 -137 -9 -160 -12 -50 -7 -53 2 -29 77 8 24 36 124 62 222
26 97 50 177 53 177 3 0 48 -99 99 -219z M17205 2723 c-104 -8 -190 -15 -191
-16 -3 -5 77 -1101 81 -1105 2 -3 114 3 247 12 324 23 398 40 478 113 80 71
108 174 78 290 -16 64 -104 153 -173 174 l-49 15 46 27 c66 39 104 95 118 175
15 93 -11 179 -72 238 -100 97 -170 106 -563 77z m342 -172 c52 -24 76 -68 77
-138 1 -37 -5 -59 -20 -79 -36 -48 -78 -62 -210 -70 l-122 -7 -6 39 c-3 22 -8
87 -12 146 l-6 106 73 6 c41 3 92 8 114 9 22 2 47 4 55 5 8 1 34 -7 57 -17z
m72 -469 c65 -49 89 -135 54 -201 -29 -56 -77 -74 -230 -84 -74 -5 -135 -8
-138 -6 -6 6 -27 290 -22 296 8 8 201 21 256 18 33 -2 65 -11 80 -23z"/>
</g>
</g>
</svg>
